<svg xmlns="http://www.w3.org/2000/svg" xmlns:xlink="http://www.w3.org/1999/xlink" style="enable-background:new 0 0 61 51.29;" version="1.1" viewBox="0 0 61 51.29" xml:space="preserve"><style type="text/css">
	.st0{fill:#FFFFFF;stroke:#000000;stroke-miterlimit:10;}
	.st1{fill:#FFFFFF;}
	.st2{fill:none;stroke:#000000;stroke-miterlimit:10;}
	.st3{fill:none;stroke:#000000;stroke-linecap:round;stroke-miterlimit:10;}
	.st4{fill:none;stroke:#000000;stroke-linejoin:round;stroke-miterlimit:10;}
	.st5{fill:none;stroke:#000000;stroke-linecap:round;stroke-linejoin:round;stroke-miterlimit:10;}
</style><g id="Layer_2"/><g id="Layer_1"/><g id="Layer_3"><g><path d="M60,26.07L48.03,14.75c-1.59-1.49-3.66-2.31-5.84-2.31h-4.05V9.36h3.12v-1h-0.86V1.99C40.39,0.89,39.5,0,38.4,0H14.29    c-1.1,0-1.99,0.89-1.99,1.99v6.37h-0.86v1h3.12v3.08h-3.1c-2.11,0-4.05,1.16-5.04,3.02L0.95,25.68C0.33,26.84,0,28.14,0,29.45    v10.53c0,2.18,1.77,3.95,3.95,3.95h1.63c0,0.04-0.01,0.08-0.01,0.13c0,3.99,3.25,7.23,7.23,7.23s7.23-3.25,7.23-7.23    c0-0.04-0.01-0.08-0.01-0.13H41.1c0,0.04-0.01,0.08-0.01,0.13c0,3.99,3.25,7.23,7.23,7.23s7.23-3.25,7.23-7.23    c0-0.04-0.01-0.08-0.01-0.13h1.5c2.18,0,3.95-1.77,3.95-3.95v-3.45v-5.72v-2.43C61,27.51,60.64,26.67,60,26.07z M59.32,26.8    c0.03,0.03,0.05,0.06,0.08,0.09H38.13v-9.45h11.27L59.32,26.8z M36.28,1h2.13c0.54,0,0.99,0.44,0.99,0.99v6.37h-3.11V1z     M37.13,9.36v3.08H15.57V9.36H37.13z M17.42,1h17.86v7.36H17.42V1z M13.31,8.36V1.99c0-0.54,0.44-0.99,0.99-0.99h2.13v7.36H13.31z     M12.81,50.29c-3.44,0-6.23-2.8-6.23-6.23s2.8-6.23,6.23-6.23s6.23,2.8,6.23,6.23S16.24,50.29,12.81,50.29z M37.13,42.93H19.94    c-0.54-3.45-3.53-6.11-7.14-6.11s-6.59,2.65-7.14,6.11H3.95C2.32,42.93,1,41.61,1,39.98v-0.03h3.66v-1H1v-9.5    c0-1.15,0.29-2.29,0.83-3.3L7.3,15.93c0.82-1.54,2.42-2.49,4.16-2.49h30.72c1.92,0,3.75,0.72,5.16,2.04l1.01,0.95H12.8    c-1.1,0-2.04,0.75-2.28,1.83l-1.44,6.51c-0.17,0.76,0.02,1.55,0.5,2.16c0.49,0.61,1.22,0.96,2,0.96h25.55V42.93z M37.13,26.89    H11.58c-0.48,0-0.92-0.21-1.22-0.58c-0.3-0.37-0.41-0.85-0.31-1.32l1.44-6.51c0.14-0.61,0.67-1.04,1.3-1.04h24.34V26.89z     M48.32,50.29c-3.44,0-6.23-2.8-6.23-6.23s2.8-6.23,6.23-6.23s6.23,2.8,6.23,6.23S51.76,50.29,48.32,50.29z M60,35.53h-3.94    c-0.86,0-1.55-0.7-1.55-1.55v-0.61c0-0.86,0.7-1.55,1.55-1.55H60V35.53z M60,30.81h-3.94c-1.41,0-2.55,1.15-2.55,2.55v0.61    c0,1.41,1.15,2.55,2.55,2.55H60v2.7h-3.7v1h3.67c-0.13,1.51-1.38,2.69-2.92,2.69h-1.59c-0.54-3.45-3.53-6.11-7.14-6.11    s-6.59,2.65-7.14,6.11h-3.05V27.89h21.81c0.04,0.16,0.06,0.33,0.06,0.49V30.81z"/><rect height="2.11" width="2.11" x="47.27" y="43"/><rect height="2.11" width="2.11" x="11.75" y="43"/><rect height="1" width="4.04" x="9.82" y="30.81"/><rect height="1" width="4.04" x="40.75" y="30.81"/><path d="M29.25,4.94c0,0.4-0.32,0.72-0.72,0.72h-4.36c-0.4,0-0.72-0.32-0.72-0.72V3.61h-1v1.33c0,0.95,0.77,1.72,1.72,1.72h4.36    c0.95,0,1.72-0.77,1.72-1.72V3.61h-1V4.94z"/></g></g></svg>